<svg xmlns="http://www.w3.org/2000/svg" width="69.67" height="68.615" viewBox="0 0 69.67 68.615"><defs><style>.a{fill:#ffcdac;}.b{fill:#6bd5e1;}.c{fill:#ffb677;}.d{fill:#ff8364;}.e{fill:#ffd98e;}</style></defs><path class="a" d="M140.39,244.681l9.182-9.086c3.43-3.43,10.025.9,6.462,5.09l-11.119,13.081a7.8,7.8,0,0,1-1.487,1.35,11.092,11.092,0,0,1-6.03,1.527H120.9a30.955,30.955,0,0,0-3.571.207l-4.746.533-9.843-9.552s5.584-10.545,16.537-7.514a23.587,23.587,0,0,0,6.294.837h10.844c5.1,0,5.145,8.111-.043,8.111h-9.44" transform="translate(-88.758 -202.532)"/><path class="b" d="M26.058,335.971l9.364-9.607a.007.007,0,0,0,0-.01l-15.89-15.42a.007.007,0,0,0-.01,0l-9.452,9.813Zm0,0" transform="translate(-8.7 -268.691)"/><path class="c" d="M59.056,100.317a5.85,5.85,0,0,0-5.29,5.823v6.228a1.948,1.948,0,0,0,1.948,1.948H69.068a1.948,1.948,0,0,0,1.948-1.948v-6.228a5.849,5.849,0,0,0-5.3-5.823" transform="translate(-46.45 -86.734)"/><path class="a" d="M82.195,17.367a6.535,6.535,0,1,1-6.535-6.535A6.535,6.535,0,0,1,82.195,17.367Zm0,0" transform="translate(-59.719 -9.426)"/><path class="d" d="M185.822,100.317a5.85,5.85,0,0,0-5.291,5.823v6.228a1.948,1.948,0,0,0,1.948,1.948h13.355a1.948,1.948,0,0,0,1.948-1.948v-6.228a5.849,5.849,0,0,0-5.3-5.823" transform="translate(-155.965 -86.734)"/><path class="a" d="M208.96,17.367a6.535,6.535,0,1,1-6.535-6.535A6.535,6.535,0,0,1,208.96,17.367Zm0,0" transform="translate(-169.235 -9.426)"/><path class="e" d="M312.592,100.317a5.85,5.85,0,0,0-5.291,5.823v6.228a1.948,1.948,0,0,0,1.948,1.948H322.6a1.948,1.948,0,0,0,1.948-1.948v-6.228a5.849,5.849,0,0,0-5.3-5.823" transform="translate(-265.485 -86.734)"/><path class="a" d="M335.73,17.367a6.535,6.535,0,1,1-6.535-6.535A6.535,6.535,0,0,1,335.73,17.367Zm0,0" transform="translate(-278.754 -9.426)"/><path d="M68.025,225.662a6.311,6.311,0,0,0-3.893-1.631,5.572,5.572,0,0,0-4.281,1.63l-7.747,7.665a5.143,5.143,0,0,0-.524-.748,5.022,5.022,0,0,0-3.924-1.755H36.812a22.242,22.242,0,0,1-5.929-.788,14.588,14.588,0,0,0-13.608,2.879,19.794,19.794,0,0,0-3.544,3.8l-1.944-1.887a1.382,1.382,0,0,0-.959-.389h-.009a1.385,1.385,0,0,0-.983.422L.384,244.678a1.372,1.372,0,0,0,.042,1.943l15.987,15.223a1.37,1.37,0,0,0,1.927-.036L27.7,252.2a1.378,1.378,0,0,0-.027-1.95l-.815-.791,1.866-.21a29.662,29.662,0,0,1,3.414-.2h16.5a12.387,12.387,0,0,0,6.769-1.743l.045-.03a9.134,9.134,0,0,0,1.748-1.587l11.119-13.081a4.787,4.787,0,0,0-.3-6.95Zm-50.7,33.263L3.315,245.586l7.546-7.834,13.927,13.515Zm48.911-28.089L55.115,243.917a6.406,6.406,0,0,1-1.2,1.1,9.747,9.747,0,0,1-5.27,1.3h-16.5a32.357,32.357,0,0,0-3.725.216l-4.1.46-8.59-8.336a17.1,17.1,0,0,1,3.284-3.613,11.8,11.8,0,0,1,11.144-2.361,24.981,24.981,0,0,0,6.66.887H47.657a2.476,2.476,0,0,1,2.467,2.684,2.968,2.968,0,0,1-.642,1.9,2.329,2.329,0,0,1-1.869.784h-9.44a1.371,1.371,0,0,0,0,2.741h9.44a5.082,5.082,0,0,0,3.958-1.751,5.629,5.629,0,0,0,1.291-3.492l8.922-8.828a3.208,3.208,0,0,1,4.382.073,2.065,2.065,0,0,1,.066,3.16Zm0,0" transform="translate(-0.001 -193.607)"/><path d="M231.943,334.279a1.37,1.37,0,1,0-2.668.626l.013.056a1.371,1.371,0,0,0,1.333,1.058,1.389,1.389,0,0,0,.314-.036,1.371,1.371,0,0,0,1.022-1.647Zm0,0" transform="translate(-198.045 -287.946)"/><path d="M47.009,29.416H60.364a3.3,3.3,0,0,0,1.948-.635,3.3,3.3,0,0,0,1.948.635H77.614a3.3,3.3,0,0,0,1.948-.635,3.3,3.3,0,0,0,1.948.635H94.864A3.322,3.322,0,0,0,98.182,26.1V19.87a7.186,7.186,0,0,0-3.908-6.425,7.906,7.906,0,1,0-12.173,0,7.179,7.179,0,0,0-2.538,2.176,7.166,7.166,0,0,0-2.539-2.176,7.906,7.906,0,1,0-12.173,0,7.166,7.166,0,0,0-2.539,2.176,7.172,7.172,0,0,0-2.539-2.177,7.905,7.905,0,1,0-12.173,0,7.187,7.187,0,0,0-3.909,6.425V26.1a3.322,3.322,0,0,0,3.318,3.318ZM88.187,3.241a5.164,5.164,0,1,1-5.164,5.164A5.17,5.17,0,0,1,88.187,3.241Zm-3.561,12.22a7.877,7.877,0,0,0,7.121,0,4.453,4.453,0,0,1,3.694,4.409V26.1a.578.578,0,0,1-.577.577H81.509a.578.578,0,0,1-.577-.577V19.87A4.453,4.453,0,0,1,84.626,15.461ZM70.937,3.241a5.164,5.164,0,1,1-5.164,5.164A5.17,5.17,0,0,1,70.937,3.241Zm-3.56,12.22a7.877,7.877,0,0,0,7.121,0,4.454,4.454,0,0,1,3.694,4.409V26.1a.578.578,0,0,1-.577.577H64.26a.578.578,0,0,1-.577-.577V19.87A4.454,4.454,0,0,1,67.376,15.461ZM53.687,3.241a5.164,5.164,0,1,1-5.164,5.164A5.17,5.17,0,0,1,53.687,3.241ZM46.432,19.87a4.454,4.454,0,0,1,3.694-4.409,7.877,7.877,0,0,0,7.121,0,4.453,4.453,0,0,1,3.694,4.409V26.1a.578.578,0,0,1-.577.577H47.009a.578.578,0,0,1-.577-.577Zm0,0" transform="translate(-37.746 -0.5)"/></svg>