<svg xmlns="http://www.w3.org/2000/svg" width="58" height="58" viewBox="0 0 58 58"><g transform="translate(19.358 19.358)"><g transform="translate(0 0)"><rect width="2" height="2" transform="translate(-0.358 -0.358)"/></g></g><g transform="translate(19.358 23.215)"><g transform="translate(0 0)"><rect width="2" height="2" transform="translate(-0.358 -0.215)"/></g></g><g transform="translate(19.358 27.072)"><g transform="translate(0 0)"><rect width="2" height="2" transform="translate(-0.358 -0.072)"/></g></g><g transform="translate(19.358 30.928)"><g transform="translate(0 0)"><rect width="2" height="2" transform="translate(-0.358 0.072)"/></g></g><g transform="translate(23.215 19.358)"><g transform="translate(0 0)"><rect width="2" height="2" transform="translate(-0.215 -0.358)"/></g></g><g transform="translate(23.215 23.215)"><g transform="translate(0 0)"><rect width="2" height="2" transform="translate(-0.215 -0.215)"/></g></g><g transform="translate(23.215 27.072)"><g transform="translate(0 0)"><rect width="2" height="2" transform="translate(-0.215 -0.072)"/></g></g><g transform="translate(23.215 30.928)"><g transform="translate(0 0)"><rect width="2" height="2" transform="translate(-0.215 0.072)"/></g></g><g transform="translate(27.072 19.358)"><g transform="translate(0 0)"><rect width="4" height="2" transform="translate(-0.072 -0.358)"/></g></g><g transform="translate(27.072 23.215)"><g transform="translate(0 0)"><rect width="4" height="2" transform="translate(-0.072 -0.215)"/></g></g><g transform="translate(27.072 27.072)"><g transform="translate(0 0)"><rect width="4" height="2" transform="translate(-0.072 -0.072)"/></g></g><g transform="translate(27.072 30.928)"><g transform="translate(0 0)"><rect width="4" height="2" transform="translate(-0.072 0.072)"/></g></g><g transform="translate(32.857 19.358)"><g transform="translate(0 0)"><rect width="2" height="2" transform="translate(0.143 -0.358)"/></g></g><g transform="translate(23.215 15.501)"><g transform="translate(0 0)"><rect width="2" height="1" transform="translate(-0.215 0.499)"/></g></g><g transform="translate(27.072 15.501)"><g transform="translate(0 0)"><rect width="4" height="1" transform="translate(-0.072 0.499)"/></g></g><g transform="translate(32.857 15.501)"><g transform="translate(0 0)"><rect width="2" height="1" transform="translate(0.143 0.499)"/></g></g><g transform="translate(32.857 23.215)"><g transform="translate(0 0)"><rect width="2" height="2" transform="translate(0.143 -0.215)"/></g></g><g transform="translate(32.857 27.072)"><g transform="translate(0 0)"><rect width="2" height="2" transform="translate(0.143 -0.072)"/></g></g><g transform="translate(32.857 30.928)"><g transform="translate(0 0)"><rect width="2" height="2" transform="translate(0.143 0.072)"/></g></g><g transform="translate(36.714 19.358)"><g transform="translate(0 0)"><rect width="2" height="2" transform="translate(0.286 -0.358)"/></g></g><g transform="translate(36.714 23.215)"><g transform="translate(0 0)"><rect width="2" height="2" transform="translate(0.286 -0.215)"/></g></g><g transform="translate(36.714 27.072)"><g transform="translate(0 0)"><rect width="2" height="2" transform="translate(0.286 -0.072)"/></g></g><g transform="translate(36.714 30.928)"><g transform="translate(0 0)"><rect width="2" height="2" transform="translate(0.286 0.072)"/></g></g><g transform="translate(0 0)"><g transform="translate(0 0)"><path d="M57.034,14.5h-14.5V.967A.966.966,0,0,0,41.568,0H16.433a.966.966,0,0,0-.967.966h0V14.5H.967A.966.966,0,0,0,0,15.466H0v34.8a.966.966,0,0,0,.966.967H2.987A5.8,5.8,0,0,0,2.9,52.2v4.833A.966.966,0,0,0,3.866,58H54.133a.966.966,0,0,0,.967-.966h0V52.2a5.776,5.776,0,0,0-.087-.967h2.021A.966.966,0,0,0,58,50.268h0v-34.8A.966.966,0,0,0,57.034,14.5ZM41.567,41.567a1.933,1.933,0,1,1-1.933-1.933A1.933,1.933,0,0,1,41.567,41.567Zm-23.2-1.933a1.933,1.933,0,1,1-1.933,1.933A1.933,1.933,0,0,1,18.367,39.633Zm-5.8,16.433H4.833V52.2a3.867,3.867,0,0,1,7.733,0Zm-5.8-11.6A1.933,1.933,0,1,1,8.7,46.4,1.933,1.933,0,0,1,6.767,44.467Zm5.946,3.556a5.827,5.827,0,0,0-1.216-.9,3.867,3.867,0,1,0-5.594,0A5.837,5.837,0,0,0,3.685,49.3H1.933V16.433H15.467v22.6a3.814,3.814,0,0,0,.1,5.186A5.816,5.816,0,0,0,12.713,48.022Zm9.52,8.044H14.5V49.3a3.867,3.867,0,0,1,7.733,0Zm11.6,0H24.167V49.3a4.833,4.833,0,1,1,9.667,0ZM26.1,39.633a2.9,2.9,0,1,1,2.9,2.9A2.9,2.9,0,0,1,26.1,39.633Zm8.787,6.343A6.809,6.809,0,0,0,32.114,43.3a4.833,4.833,0,1,0-6.228,0,6.809,6.809,0,0,0-2.773,2.678,5.838,5.838,0,0,0-1.949-1.754A3.839,3.839,0,0,0,17.4,37.837V1.933H40.6v35.9a3.85,3.85,0,0,0-3.764,6.385A5.838,5.838,0,0,0,34.887,45.976ZM43.5,52.2v3.867H35.767V49.3a3.867,3.867,0,0,1,7.733,0Zm9.667,3.867H45.433V52.2a3.867,3.867,0,0,1,7.733,0Zm-5.8-11.6A1.933,1.933,0,1,1,49.3,46.4,1.933,1.933,0,0,1,47.367,44.467Zm8.7,4.833H54.315A5.837,5.837,0,0,0,52.1,47.122a3.867,3.867,0,1,0-5.594,0,5.824,5.824,0,0,0-1.216.9,5.816,5.816,0,0,0-2.856-3.8,3.814,3.814,0,0,0,.1-5.186v-22.6H56.067V49.3Z" transform="translate(0 0)"/></g></g><g transform="translate(46.356 21.286)"><g transform="translate(0 0)"><rect width="2" height="18" transform="translate(-0.356 -0.286)"/></g></g><g transform="translate(52.142 21.286)"><g transform="translate(0 0)"><rect width="2" height="18" transform="translate(-0.142 -0.286)"/></g></g><g transform="translate(3.93 21.286)"><g transform="translate(0 0)"><rect width="2" height="18" transform="translate(0.07 -0.286)"/></g></g><g transform="translate(9.715 21.286)"><g transform="translate(0 0)"><rect width="2" height="18" transform="translate(0.285 -0.286)"/></g></g><g transform="translate(22.233 3.867)"><path d="M196.568,32h-11.6a.966.966,0,0,0-.967.966h0V40.7a.966.966,0,0,0,.966.967h11.6a.966.966,0,0,0,.967-.966h0V32.967A.966.966,0,0,0,196.568,32Zm-.968,7.733h-9.667v-5.8H195.6Z" transform="translate(-184 -32)"/></g></svg>