<svg xmlns="http://www.w3.org/2000/svg" width="58" height="58.452" viewBox="0 0 58 58.452"><defs><style>.a{fill:#c03a2b;}.b{fill:#b0d3f0;}.c{fill:#90bae1;}.d{fill:#e4c05c;}.e{fill:#b19046;}.f{fill:#f0c419;}.g{fill:#f3d55b;}.h{fill:#d25627;}.i{fill:#f18d46;}.j{fill:#59474e;}.k{fill:#7f5b53;}.l{fill:#e57e25;}</style></defs><g transform="translate(0 -0.548)"><path class="a" d="M38.49,24.91,30,30V25.77a1,1,0,0,0-1.51-.86L20,30V25.77a1,1,0,0,0-1.51-.86L10,30V25.77a1,1,0,0,0-1.51-.86L0,30v2H40V25.77a1,1,0,0,0-1.51-.86Z"/><path class="b" d="M50,7l-5.9,9.593A7.157,7.157,0,0,1,38,20c-2.63,0-4.11-.96-4.94-2.04L33,18c-8,0-8-5-8-5l.03-.17a4.792,4.792,0,0,1-3.79-3.09,5.58,5.58,0,0,1,2.21-6.23,6.451,6.451,0,0,1,5.33-.47c.02.01.05.02.07.03L29,2.65a12.866,12.866,0,0,1,2.6-.81c2.45-.48,5.18-.35,7.17,1.15L39,2.78a10.438,10.438,0,0,1,2.59-.94A7.373,7.373,0,0,1,48,2.99,5.562,5.562,0,0,1,50,7Z"/><path class="c" d="M50,8a1,1,0,0,1-1-.975,4.531,4.531,0,0,0-1.645-3.267c-1.761-1.489-4.232-1.229-5.547-.941a9.164,9.164,0,0,0-2.34.85A1,1,0,0,1,38.532,1.9,11.169,11.169,0,0,1,41.381.863a8.288,8.288,0,0,1,7.265,1.366A6.565,6.565,0,0,1,51,6.975,1,1,0,0,1,50.024,8Z"/><path class="c" d="M41,8a1,1,0,0,1-1-.971,4.374,4.374,0,0,0-1.838-3.241C36.133,2.258,33.3,2.526,31.8,2.821a11.723,11.723,0,0,0-2.4.746,1,1,0,1,1-.8-1.834A13.839,13.839,0,0,1,31.408.859C34.577.238,37.4.711,39.367,2.192A6.384,6.384,0,0,1,42,6.971,1,1,0,0,1,41.029,8Z"/><path class="c" d="M26.7,14c-2.4,0-5.517-1.038-6.42-3.963a6.541,6.541,0,0,1,2.637-7.37,7.433,7.433,0,0,1,6.163-.58,14.458,14.458,0,0,1,2.389,1.03,1,1,0,0,1-.938,1.766,12.582,12.582,0,0,0-2.061-.892,5.413,5.413,0,0,0-4.484.366,4.571,4.571,0,0,0-1.8,5.09C22.773,11.332,24.984,12,26.7,12a1,1,0,1,1,0,2Z"/><path class="c" d="M33,19c-8.9,0-9-5.94-9-6a1,1,0,0,1,2-.01c0,.186.2,4.01,7,4.01a1,1,0,0,1,0,2Z"/><path class="c" d="M38,21c-5.537,0-7-3.925-7-6a1,1,0,0,1,2,0c.006.416.2,4,5,4a1,1,0,0,1,0,2Z"/><path class="d" d="M47.225,11h3.551A1.225,1.225,0,0,1,52,12.225V17H46V12.225A1.225,1.225,0,0,1,47.225,11Z"/><path class="e" d="M55,38,52,15H46L43,38Z"/><path class="f" d="M38,37H56.973A1.027,1.027,0,0,1,58,38.027V56H38Z"/><path class="g" d="M45,43H40a1,1,0,0,1,0-2h5a1,1,0,0,1,0,2Z"/><path class="g" d="M54,43H49a1,1,0,0,1,0-2h5a1,1,0,0,1,0,2Z"/><rect class="h" width="40" height="26" transform="translate(0 30)"/><path class="i" d="M9,35a1,1,0,0,1-1,1H0V34H8A1,1,0,0,1,9,35Z"/><path class="i" d="M23,36H12a1,1,0,0,1,0-2H23a1,1,0,0,1,0,2Z"/><rect class="b" width="7" height="6" rx="1" transform="translate(4 42)"/><rect class="b" width="7" height="6" rx="1" transform="translate(15 42)"/><path class="j" d="M36,40.063V56H26V40.063A1.036,1.036,0,0,1,27,39h8A1.036,1.036,0,0,1,36,40.063Z"/><path class="k" d="M33,43a1,1,0,0,1-1,1H26V42h6A1,1,0,0,1,33,43Z"/><path class="k" d="M33,47a1,1,0,0,1-1,1H26V46h6A1,1,0,0,1,33,47Z"/><path class="k" d="M33,51a1,1,0,0,1-1,1H26V50h6A1,1,0,0,1,33,51Z"/><path class="l" d="M47,48h4a1,1,0,0,1,1,1v6H46V49A1,1,0,0,1,47,48Z"/><path class="k" d="M58,55H0v3a1,1,0,0,0,1,1H57a1,1,0,0,0,1-1Z"/></g></svg>